<svg width="489.76" height="238.86" version="1.1" viewBox="0 0 489.76 238.86" xml:space="preserve" xmlns="http://www.w3.org/2000/svg"><g transform="matrix(1.3333 0 0 -1.3333 53.686 897.19)"><path d="m150.34 517.58c-7.0989 0.47326-15.285 1.7178-21.741 3.5874-1.2094 0.35056-6.2166 2.191-7.4904 2.7753-22.477 10.412-38.135 33.14-38.135 59.508 0 36.166 29.424 65.625 65.614 65.625 35.868 0 65.094-28.957 65.596-64.714h23.704c-0.50247 48.822-40.356 88.389-89.3 88.389-49.237 0-89.312-40.052-89.312-89.3 0-33.952 19.094-63.481 47.051-78.567 5.0481-2.6701 12.293-5.422 14.753-6.1758 7.9695-2.3722 17.75-3.9497 26.456-4.6099 2.9564-0.22202 13.281-0.33888 16.29-0.35056h163.23v23.61h-162.96c-2.1676 0-11.639 0.0818-13.76 0.22202" fill="#3077af"/><path d="m164.1 554.65c-1.7236 0-10.739 0.0584-12.404 0.19865-2.822 0.23955-6.9119 0.66023-9.5412 1.262-2.9681 0.79461-5.7551 1.8463-7.0113 2.5357-8.805 4.7618-14.805 14.075-14.805 24.802 0 15.606 12.638 28.261 28.25 28.261 15.285 0 27.712-12.159 28.209-27.35h22.775c-0.47911 27.753-23.102 50.119-50.984 50.119-28.191 0-51.042-22.845-51.042-51.03 0-19.877 11.393-37.043 27.987-45.451 2.5533-1.4957 7.356-3.0616 8.7232-3.418 4.6859-1.2328 10.978-2.0742 16.085-2.4481 1.8872-0.15775 11.13-0.22786 13.082-0.23955v-0.0351h163.63v22.792z" fill="#219cda"/><path d="m44.665 493.84h-23.862v155.19h-34.869v23.868h58.731z" fill="#3077af"/><path d="m-40.265 637.1v-22.95h26.199v-120.31h22.927v143.26z" fill="#219cda"/></g></svg>
