<svg width="202" height="202" viewBox="0 0 202 202" fill="none" xmlns="http://www.w3.org/2000/svg">
<g filter="url(#filter0_f_1203_18230)">
<circle cx="101" cy="101" r="95" fill="#9AD2FB"/>
</g>
<g filter="url(#filter1_f_1203_18230)">
<circle cx="101" cy="101" r="95" fill="url(#paint0_radial_1203_18230)" fill-opacity="0.5"/>
<circle cx="101" cy="101" r="95.5" stroke="white" stroke-opacity="0.8"/>
</g>
<g filter="url(#filter2_d_1203_18230)">
<path d="M45.25 95.5V104.75H61.45V111.25H45.25V124H37.15V89H63.6V95.5H45.25ZM91.3836 124L84.6336 114.25H84.2336H77.1836V124H69.0836V89H84.2336C87.3336 89 90.0169 89.5167 92.2836 90.55C94.5836 91.5833 96.3503 93.05 97.5836 94.95C98.8169 96.85 99.4336 99.1 99.4336 101.7C99.4336 104.3 98.8003 106.55 97.5336 108.45C96.3003 110.317 94.5336 111.75 92.2336 112.75L100.084 124H91.3836ZM91.2336 101.7C91.2336 99.7333 90.6003 98.2333 89.3336 97.2C88.0669 96.1333 86.2169 95.6 83.7836 95.6H77.1836V107.8H83.7836C86.2169 107.8 88.0669 107.267 89.3336 106.2C90.6003 105.133 91.2336 103.633 91.2336 101.7ZM132.951 117.5V124H105.851V89H132.301V95.5H113.901V103.1H130.151V109.4H113.901V117.5H132.951ZM166.496 117.5V124H139.396V89H165.846V95.5H147.446V103.1H163.696V109.4H147.446V117.5H166.496Z" fill="white"/>
</g>
<path d="M82.9 64.6V68.3H89.38V70.9H82.9V76H79.66V62H90.24V64.6H82.9ZM99.0767 76.24C97.6234 76.24 96.3101 75.9267 95.1367 75.3C93.9767 74.6733 93.0634 73.8133 92.3967 72.72C91.7434 71.6133 91.4167 70.3733 91.4167 69C91.4167 67.6267 91.7434 66.3933 92.3967 65.3C93.0634 64.1933 93.9767 63.3267 95.1367 62.7C96.3101 62.0733 97.6234 61.76 99.0767 61.76C100.53 61.76 101.837 62.0733 102.997 62.7C104.157 63.3267 105.07 64.1933 105.737 65.3C106.403 66.3933 106.737 67.6267 106.737 69C106.737 70.3733 106.403 71.6133 105.737 72.72C105.07 73.8133 104.157 74.6733 102.997 75.3C101.837 75.9267 100.53 76.24 99.0767 76.24ZM99.0767 73.48C99.9034 73.48 100.65 73.2933 101.317 72.92C101.983 72.5333 102.503 72 102.877 71.32C103.263 70.64 103.457 69.8667 103.457 69C103.457 68.1333 103.263 67.36 102.877 66.68C102.503 66 101.983 65.4733 101.317 65.1C100.65 64.7133 99.9034 64.52 99.0767 64.52C98.2501 64.52 97.5034 64.7133 96.8367 65.1C96.1701 65.4733 95.6434 66 95.2567 66.68C94.8834 67.36 94.6967 68.1333 94.6967 69C94.6967 69.8667 94.8834 70.64 95.2567 71.32C95.6434 72 96.1701 72.5333 96.8367 72.92C97.5034 73.2933 98.2501 73.48 99.0767 73.48ZM118.092 76L115.392 72.1H115.232H112.412V76H109.172V62H115.232C116.472 62 117.545 62.2067 118.452 62.62C119.372 63.0333 120.078 63.62 120.572 64.38C121.065 65.14 121.312 66.04 121.312 67.08C121.312 68.12 121.058 69.02 120.552 69.78C120.058 70.5267 119.352 71.1 118.432 71.5L121.572 76H118.092ZM118.032 67.08C118.032 66.2933 117.778 65.6933 117.272 65.28C116.765 64.8533 116.025 64.64 115.052 64.64H112.412V69.52H115.052C116.025 69.52 116.765 69.3067 117.272 68.88C117.778 68.4533 118.032 67.8533 118.032 67.08Z" fill="white"/>
<defs>
<filter id="filter0_f_1203_18230" x="1" y="1" width="200" height="200" filterUnits="userSpaceOnUse" color-interpolation-filters="sRGB">
<feFlood flood-opacity="0" result="BackgroundImageFix"/>
<feBlend mode="normal" in="SourceGraphic" in2="BackgroundImageFix" result="shape"/>
<feGaussianBlur stdDeviation="2.5" result="effect1_foregroundBlur_1203_18230"/>
</filter>
<filter id="filter1_f_1203_18230" x="0" y="0" width="202" height="202" filterUnits="userSpaceOnUse" color-interpolation-filters="sRGB">
<feFlood flood-opacity="0" result="BackgroundImageFix"/>
<feBlend mode="normal" in="SourceGraphic" in2="BackgroundImageFix" result="shape"/>
<feGaussianBlur stdDeviation="2.5" result="effect1_foregroundBlur_1203_18230"/>
</filter>
<filter id="filter2_d_1203_18230" x="32.1484" y="84" width="139.348" height="45" filterUnits="userSpaceOnUse" color-interpolation-filters="sRGB">
<feFlood flood-opacity="0" result="BackgroundImageFix"/>
<feColorMatrix in="SourceAlpha" type="matrix" values="0 0 0 0 0 0 0 0 0 0 0 0 0 0 0 0 0 0 127 0" result="hardAlpha"/>
<feOffset/>
<feGaussianBlur stdDeviation="2.5"/>
<feComposite in2="hardAlpha" operator="out"/>
<feColorMatrix type="matrix" values="0 0 0 0 0.0705882 0 0 0 0 0.368627 0 0 0 0 0.592157 0 0 0 0.15 0"/>
<feBlend mode="normal" in2="BackgroundImageFix" result="effect1_dropShadow_1203_18230"/>
<feBlend mode="normal" in="SourceGraphic" in2="effect1_dropShadow_1203_18230" result="shape"/>
</filter>
<radialGradient id="paint0_radial_1203_18230" cx="0" cy="0" r="1" gradientUnits="userSpaceOnUse" gradientTransform="translate(101 101) rotate(90) scale(95)">
<stop offset="0.399112" stop-color="white"/>
<stop offset="0.643918" stop-color="white" stop-opacity="0.706667"/>
<stop offset="1" stop-color="white" stop-opacity="0.28"/>
</radialGradient>
</defs>
</svg>
