<svg width="60" height="60" viewBox="0 0 60 60" fill="none" xmlns="http://www.w3.org/2000/svg">
<rect width="60" height="60" rx="5" fill="#0092FF"/>
<path d="M46.2979 36.1346C46.2673 36.1345 43.3711 36.0891 42.8996 34.7523C43.0106 34.6036 43.1271 34.4521 43.2486 34.2991C43.2499 34.2975 43.2509 34.2958 43.2522 34.2942C43.4253 34.0751 43.6019 33.8574 43.7891 33.6268C45.2941 31.7724 47 29.6705 47 26.5087C47 26.2797 46.9937 26.0477 46.9812 25.8191C46.9639 25.5026 46.6876 25.2588 46.3652 25.2766C46.0422 25.2935 45.7943 25.5638 45.8116 25.8804C45.823 26.0886 45.8287 26.3 45.8287 26.5087C45.8287 28.4684 45.0716 29.97 44.1124 31.3169C44.1128 31.3128 44.1129 31.3088 44.1132 31.3047C44.1229 31.1932 44.1302 31.0813 44.1354 30.9688C44.1363 30.9501 44.137 30.9314 44.1377 30.9127C44.1423 30.7986 44.1453 30.684 44.1453 30.5686C44.1453 28.5175 43.6503 26.8755 42.6739 25.6884C42.6733 25.6877 42.6727 25.6872 42.6723 25.6865C42.6706 25.6845 42.669 25.6825 42.6673 25.6806C42.07 24.9557 41.2832 24.3904 40.3249 23.996V21.4439C40.3249 21.4356 40.3248 21.4273 40.3244 21.4191V20.292C40.3244 19.7073 40.1046 19.1723 39.7426 18.7609C40.8134 19.0649 41.7569 19.4795 42.5583 20.0004C43.9817 20.9256 44.9519 22.1921 45.442 23.7645C45.5191 24.0118 45.7511 24.171 46.0019 24.171C46.0586 24.171 46.1162 24.1628 46.1732 24.1458C46.4825 24.0532 46.6567 23.7324 46.5622 23.4292C45.583 20.2873 42.9556 18.2052 38.9513 17.387C38.7628 16.0409 37.5823 15.0003 36.1578 15.0003C35.2484 15.0003 34.4386 15.4245 33.9223 16.0812C33.4062 15.4246 32.5967 15.0003 31.6874 15.0003C30.7781 15.0003 29.9684 15.4244 29.4521 16.081C28.9358 15.4243 28.1262 15 27.2169 15C26.3076 15 25.4979 15.4243 24.9817 16.081C24.4654 15.4243 23.6558 15 22.7466 15C21.2272 15 19.9851 16.1837 19.9284 17.6595C16.6681 18.5871 13 20.8819 13 26.5086C13 29.6704 14.7059 31.7723 16.2109 33.6267C16.398 33.8573 16.5748 34.0751 16.7479 34.2942C16.7491 34.2958 16.7502 34.2975 16.7514 34.2991C16.8729 34.4521 16.9895 34.6037 17.1003 34.7523C16.6289 36.0892 13.7328 36.1345 13.7027 36.1346C13.4485 36.1346 13.2233 36.2953 13.1453 36.5323C13.0673 36.7694 13.1541 37.0287 13.3604 37.1743L14.7471 38.1531L14.296 39.8204C14.2494 39.9926 14.2871 40.1762 14.398 40.3175C14.5088 40.4587 14.6803 40.5414 14.8621 40.5414C14.8964 40.5414 15.7132 40.539 16.6389 40.3291C17.9522 40.0313 18.8262 39.4762 19.2397 38.6805C20.8591 36.3596 19.8605 33.421 18.9781 30.8267C18.37 29.0386 17.7958 27.3486 18.2762 26.3646C18.9568 25.5577 19.9174 25.0158 21.2064 24.7143C21.6496 24.9986 22.1786 25.1646 22.7466 25.1646C23.4863 25.1646 24.1601 24.8837 24.6637 24.4255C24.8961 24.4292 25.1193 24.4354 25.3173 24.4418C25.819 24.8905 26.4858 25.1645 27.2169 25.1645C28.1262 25.1645 28.9358 24.7402 29.4521 24.0836C29.9684 24.7404 30.7781 25.1647 31.6875 25.1647C32.011 25.1647 32.2732 24.9077 32.2732 24.5907C32.2732 24.2737 32.011 24.0167 31.6875 24.0167C30.9555 24.0167 30.3342 23.5469 30.119 22.899C30.6669 23.3168 31.3545 23.5665 32.101 23.5665H33.6014C33.7992 23.9806 34.1014 24.3441 34.4767 24.6186V25.1031C34.4767 25.2343 34.3677 25.3411 34.2339 25.3411H33.7883C31.3132 25.3411 29.2995 27.3147 29.2995 29.7405C29.2995 30.0575 29.5616 30.3144 29.8851 30.3144C30.2086 30.3144 30.4708 30.0575 30.4708 29.7405C30.4708 27.9476 31.9591 26.4891 33.7883 26.4891H34.2339C35.0136 26.4891 35.648 25.8673 35.648 25.1031V24.32C35.648 24.3194 35.648 24.3187 35.648 24.318V22.9927C35.648 22.6757 35.3859 22.4187 35.0624 22.4187H32.101C30.9633 22.4187 30.0378 21.5116 30.0378 20.3966V19.3363C30.0378 19.2016 30.1496 19.092 30.287 19.092H33.9178C33.9194 19.092 33.9208 19.0922 33.9223 19.0922C33.9238 19.0922 33.9253 19.092 33.9268 19.092H37.9288C38.6039 19.092 39.1531 19.6303 39.1531 20.292V21.4438C39.1531 21.4521 39.1533 21.4603 39.1536 21.4685V30.4981C39.1536 30.5559 39.1505 30.6131 39.1459 30.67C39.0925 31.3049 38.7467 31.8902 38.2085 32.2509C38.1709 32.276 38.1325 32.3002 38.093 32.3232C38.0516 32.3474 38.0094 32.3702 37.9665 32.3916C37.6649 32.5415 37.3292 32.6202 36.9871 32.6202H36.3186C35.9951 32.6202 35.733 32.8772 35.733 33.1941V36.9233H24.8214V33.1941C24.8214 32.8772 24.5592 32.6202 24.2357 32.6202H22.9465C21.9265 32.6202 21.0968 31.8072 21.0968 30.808V26.6915C21.0968 26.3745 20.8346 26.1175 20.5111 26.1175C20.1876 26.1175 19.9255 26.3745 19.9255 26.6915V30.808C19.9255 32.4402 21.2807 33.7681 22.9465 33.7681H23.6501V36.9233H23.5263C22.6606 36.9233 21.9564 37.6135 21.9564 38.4618V42.4614C21.9564 43.3098 22.6608 44 23.5263 44H32.8178C33.1413 44 33.4034 43.743 33.4034 43.426C33.4034 43.109 33.1413 42.8521 32.8178 42.8521H23.5263C23.3065 42.8521 23.1277 42.6768 23.1277 42.4614V38.4618C23.1277 38.2464 23.3065 38.0712 23.5263 38.0712H24.2327C24.2337 38.0712 24.2347 38.0713 24.2357 38.0713C24.2367 38.0713 24.2378 38.0712 24.2388 38.0712H36.3157C36.3167 38.0712 36.3177 38.0713 36.3187 38.0713C36.3198 38.0713 36.3208 38.0712 36.3218 38.0712H37.0285C37.2482 38.0712 37.427 38.2465 37.427 38.4618V42.4614C37.427 42.6768 37.2482 42.8521 37.0285 42.8521H35.1605C34.837 42.8521 34.5749 43.109 34.5749 43.426C34.5749 43.743 34.837 44 35.1605 44H37.0285C37.8941 44 38.5983 43.3098 38.5983 42.4614V38.4618C38.5983 37.6134 37.894 36.9233 37.0285 36.9233H36.9044V36.633C36.9044 36.6311 36.9047 36.6291 36.9047 36.6271V33.7682H36.9872C37.5122 33.7682 38.0276 33.6475 38.4909 33.418C38.4928 33.4171 38.4949 33.4163 38.4967 33.4153C38.4987 33.4143 38.5005 33.4132 38.5025 33.4122C38.5669 33.3799 38.6305 33.3459 38.6927 33.3095C39.6997 32.7229 40.3253 31.6456 40.3253 30.4981C40.3253 30.4955 40.325 30.4932 40.3249 30.4906V25.2627C40.8832 25.5508 41.345 25.9148 41.723 26.3631C42.2048 27.3469 41.6304 29.0377 41.0218 30.8266C40.1394 33.4211 39.1409 36.3598 40.7606 38.6808C41.1745 39.4765 42.0483 40.0314 43.3612 40.3291C44.2868 40.539 45.1036 40.5414 45.138 40.5414C45.3197 40.5414 45.4912 40.4587 45.6021 40.3175C45.713 40.1762 45.7506 39.9926 45.7041 39.8204L45.253 38.1531L46.6396 37.1743C46.8457 37.0288 46.9323 36.7699 46.8546 36.5329C46.7768 36.296 46.5519 36.1351 46.2979 36.1346ZM18.2605 38.014C18.2457 38.0561 18.2284 38.0971 18.2086 38.1372C18.2085 38.1374 18.2085 38.1375 18.2085 38.1377C17.9092 38.7446 17.057 39.0537 16.3949 39.2061C16.1266 39.2679 15.8662 39.3093 15.6385 39.337L15.9825 38.0654C16.0447 37.8354 15.9557 37.5916 15.7587 37.4525L15.2766 37.1122C16.1577 36.9346 17.1981 36.5718 17.8114 35.8314C17.8164 35.8405 17.8219 35.8498 17.8269 35.8589C17.8335 35.8712 17.8399 35.8833 17.8464 35.8955C17.8693 35.9379 17.8911 35.9801 17.9122 36.0219C17.9173 36.0319 17.9225 36.0421 17.9275 36.052C17.9522 36.1019 17.9758 36.1514 17.9981 36.2003C18.0024 36.2098 18.0064 36.2192 18.0107 36.2287C18.0289 36.2693 18.0462 36.3096 18.0627 36.3497C18.0677 36.3618 18.0728 36.3739 18.0777 36.386C18.097 36.434 18.1155 36.4819 18.1325 36.5294C18.1334 36.5319 18.1342 36.5344 18.1352 36.537C18.1511 36.5817 18.1657 36.626 18.1795 36.6702C18.1834 36.6826 18.1871 36.6949 18.1909 36.7072C18.203 36.7474 18.2144 36.7875 18.2248 36.8273C18.2267 36.834 18.2286 36.8408 18.2303 36.8475C18.242 36.8932 18.2524 36.9386 18.2619 36.9839C18.2643 36.9953 18.2664 37.0067 18.2687 37.018C18.2759 37.0545 18.2825 37.0909 18.2883 37.1272C18.29 37.138 18.2919 37.1488 18.2935 37.1595C18.3002 37.2042 18.306 37.2489 18.3106 37.2935C18.3115 37.302 18.3121 37.3105 18.3128 37.319C18.3165 37.3563 18.3192 37.3936 18.3214 37.4308C18.3221 37.443 18.3228 37.4552 18.3233 37.4673C18.3254 37.5122 18.3267 37.557 18.3267 37.6019C18.3266 37.7515 18.3049 37.8874 18.2605 38.014ZM18.9246 35.4394C18.9159 35.4225 18.9068 35.406 18.898 35.3892C18.8865 35.3674 18.875 35.3457 18.8633 35.3242C18.8413 35.2835 18.8189 35.2433 18.7964 35.2033C18.7858 35.1845 18.7753 35.1655 18.7646 35.1469C18.7319 35.0902 18.6988 35.0342 18.6653 34.9792C18.6614 34.9728 18.6574 34.9665 18.6535 34.9601C18.6232 34.9107 18.5926 34.8619 18.5618 34.8139C18.5496 34.7948 18.5374 34.7761 18.5251 34.7572C18.5022 34.7219 18.4793 34.6871 18.4562 34.6526C18.443 34.6328 18.4298 34.6131 18.4166 34.5936C18.3932 34.5591 18.3699 34.5251 18.3465 34.4915C18.3349 34.4748 18.3233 34.4579 18.3118 34.4414C18.28 34.396 18.2483 34.3513 18.2169 34.3075C18.2146 34.3043 18.2123 34.3009 18.2099 34.2977C18.2099 34.2976 18.21 34.2978 18.2099 34.2977C18.2098 34.2974 18.2094 34.297 18.2092 34.2968C18.0569 34.0858 17.8919 33.8678 17.7183 33.6477C17.7061 33.6216 17.6942 33.5954 17.6825 33.5693C17.6702 33.5421 17.6579 33.5149 17.6459 33.4876C17.6299 33.4508 17.6144 33.414 17.5989 33.3772C17.5878 33.3506 17.5764 33.3241 17.5657 33.2975C17.5503 33.2597 17.5356 33.222 17.5209 33.1843C17.5109 33.1586 17.5008 33.1329 17.4911 33.1073C17.4765 33.0685 17.4625 33.0296 17.4486 32.9908C17.4398 32.9661 17.4307 32.9415 17.4221 32.9167C17.4082 32.8766 17.395 32.8365 17.3819 32.7964C17.3742 32.7729 17.3662 32.7494 17.3588 32.7258C17.3456 32.684 17.3331 32.6422 17.3207 32.6004C17.3142 32.5785 17.3074 32.5566 17.3011 32.5346C17.2885 32.4907 17.2767 32.4468 17.265 32.4028C17.2597 32.3828 17.2541 32.3628 17.2489 32.3428C17.237 32.2963 17.2259 32.2498 17.2149 32.2033C17.2108 32.1856 17.2062 32.168 17.2023 32.1503C17.191 32.1008 17.1806 32.0513 17.1705 32.0016C17.1674 31.9867 17.1641 31.9719 17.1611 31.957C17.1505 31.9034 17.1408 31.8497 17.1314 31.796C17.1296 31.785 17.1274 31.7741 17.1255 31.7631C17.1155 31.7038 17.1064 31.6444 17.0979 31.585C17.0971 31.5794 17.096 31.5738 17.0953 31.5682C17.0492 31.2395 17.0263 30.9069 17.0263 30.5683C17.0263 30.5526 17.0269 30.5375 17.027 30.522C17.0275 30.4076 17.0297 30.295 17.0336 30.1839C17.0352 30.1375 17.0376 30.0918 17.0397 30.046C17.0438 29.9611 17.0489 29.8772 17.055 29.7943C17.0583 29.7497 17.0613 29.7049 17.0651 29.6608C17.0747 29.5519 17.0858 29.4445 17.0988 29.3389C17.1021 29.3125 17.1056 29.2864 17.1091 29.2603C17.1226 29.1591 17.1377 29.0597 17.1546 28.9617C17.1571 28.947 17.16 28.9328 17.1626 28.9182C17.3416 29.6436 17.6016 30.4083 17.8674 31.1896C18.3567 32.6294 18.8559 34.0978 18.9246 35.4394ZM17.3326 25.6806C17.331 25.6825 17.3295 25.6843 17.328 25.6861C17.3273 25.6869 17.3266 25.6875 17.326 25.6883C16.3496 26.8755 15.8545 28.5174 15.8545 30.5685C15.8545 30.6852 15.8576 30.801 15.8623 30.9165C15.863 30.9329 15.8636 30.9495 15.8643 30.9659C15.8696 31.08 15.877 31.1938 15.8869 31.3069C15.8872 31.3102 15.8873 31.3136 15.8876 31.317C14.9284 29.9701 14.1713 28.4684 14.1713 26.5088C14.1713 22.6202 16.1068 20.0506 19.9257 18.8601V22.4002C19.9257 22.8992 20.0621 23.3674 20.2991 23.772C19.0491 24.1661 18.0537 24.8058 17.3326 25.6806ZM28.8663 22.4029C28.8646 23.293 28.1255 24.0167 27.2169 24.0167C26.3073 24.0167 25.5673 23.2914 25.5673 22.4V20.9649C25.5673 20.6479 25.3052 20.3909 24.9817 20.3909C24.6582 20.3909 24.396 20.6479 24.396 20.9649V22.4001C24.396 23.2915 23.656 24.0167 22.7466 24.0167C21.837 24.0167 21.097 23.2915 21.097 22.4001V17.7645C21.097 16.8731 21.837 16.1479 22.7466 16.1479C23.656 16.1479 24.396 16.8731 24.396 17.7645V18.6693C24.396 18.9862 24.6582 19.2432 24.9817 19.2432C25.3052 19.2432 25.5673 18.9862 25.5673 18.6693V17.7645C25.5673 16.8731 26.3073 16.1479 27.2169 16.1479C28.1254 16.1479 28.8646 16.8715 28.8663 17.7615C28.8663 17.7625 28.8662 17.7634 28.8662 17.7644V22.3998C28.8662 22.4009 28.8663 22.4018 28.8663 22.4029ZM33.3366 17.9441H30.2869C30.2018 17.9441 30.1188 17.9528 30.0377 17.9669V17.7644C30.0377 17.7634 30.0376 17.7625 30.0376 17.7615C30.0393 16.8716 30.7786 16.1481 31.6874 16.1481C32.5968 16.1481 33.3366 16.8732 33.3366 17.7644V17.9441ZM37.807 17.9441H34.5079V17.7644C34.5079 16.8732 35.2481 16.1482 36.1578 16.1482C37.0672 16.1482 37.807 16.8733 37.807 17.7644V17.9441ZM41.5829 34.5945C41.5699 34.6137 41.557 34.6328 41.5442 34.6522C41.5207 34.6872 41.4974 34.7227 41.4742 34.7586C41.4622 34.7769 41.4504 34.7951 41.4385 34.8136C41.4071 34.8625 41.376 34.9122 41.345 34.9627C41.3417 34.9681 41.3383 34.9734 41.335 34.979C41.3014 35.034 41.2682 35.0903 41.2355 35.1472C41.2248 35.1658 41.2143 35.1847 41.2037 35.2034C41.1812 35.2432 41.159 35.2833 41.137 35.3239C41.1252 35.3457 41.1134 35.3678 41.1018 35.39C41.0931 35.4066 41.0841 35.4228 41.0754 35.4395C41.144 34.0977 41.6433 32.6295 42.1331 31.1898C42.3988 30.4086 42.6589 29.6438 42.8378 28.9184C42.8403 28.9326 42.8432 28.9466 42.8456 28.9609C42.863 29.0624 42.8789 29.1655 42.8928 29.2706C42.8953 29.2893 42.8979 29.308 42.9003 29.3269C42.9141 29.4371 42.9256 29.5497 42.9355 29.6637C42.9391 29.7053 42.942 29.7476 42.9451 29.7897C42.9514 29.8759 42.9567 29.963 42.9609 30.0512C42.9629 30.0944 42.9652 30.1374 42.9666 30.181C42.9707 30.2982 42.9732 30.4169 42.9735 30.5376C42.9735 30.548 42.974 30.558 42.974 30.5685C42.974 30.7719 42.9657 30.9732 42.9492 31.1728C42.9491 31.1738 42.9489 31.1747 42.9488 31.1757C42.9435 31.2405 42.9371 31.3053 42.9299 31.3698C42.9289 31.3789 42.9276 31.388 42.9266 31.3972C42.9201 31.4535 42.9131 31.5097 42.9053 31.5658C42.9034 31.58 42.901 31.5941 42.8989 31.6082C42.8914 31.6592 42.8838 31.7101 42.8752 31.7608C42.8722 31.7783 42.8689 31.7957 42.8658 31.813C42.8574 31.8604 42.8489 31.9078 42.8396 31.9551C42.8357 31.975 42.8313 31.9949 42.8271 32.0148C42.8179 32.0594 42.8086 32.1039 42.7985 32.1484C42.7935 32.1704 42.788 32.1922 42.7828 32.2141C42.7728 32.2565 42.7628 32.2988 42.7519 32.341C42.7459 32.3643 42.7393 32.3877 42.7331 32.411C42.7222 32.4517 42.7113 32.4925 42.6996 32.5332C42.6926 32.5574 42.6852 32.5815 42.678 32.6056C42.6662 32.6455 42.6543 32.6853 42.6417 32.725C42.6339 32.7498 42.6255 32.7744 42.6174 32.799C42.6046 32.8381 42.5917 32.8773 42.5782 32.9164C42.5695 32.9414 42.5604 32.9663 42.5514 32.9913C42.5375 33.0301 42.5235 33.069 42.5089 33.1078C42.4995 33.1327 42.4896 33.1576 42.4799 33.1824C42.4648 33.2213 42.4497 33.26 42.4339 33.2987C42.4238 33.3236 42.4132 33.3484 42.4029 33.3733C42.3866 33.4122 42.3702 33.4511 42.3532 33.4898C42.3425 33.5143 42.3314 33.5387 42.3204 33.5632C42.3077 33.5914 42.2948 33.6197 42.2818 33.6479C42.1078 33.8683 41.9428 34.0865 41.79 34.2979C41.7562 34.3451 41.722 34.3934 41.6876 34.4425C41.6765 34.4583 41.6653 34.4746 41.6543 34.4906C41.6305 34.5248 41.6067 34.5593 41.5829 34.5945ZM44.0175 38.0654L44.3618 39.3382C43.4415 39.2225 42.1672 38.8994 41.7914 38.1374C41.7914 38.1374 41.7915 38.1375 41.7914 38.1374C41.732 38.017 41.6952 37.8881 41.6807 37.7471C41.6758 37.7002 41.6734 37.6518 41.6734 37.6019C41.6734 37.557 41.6748 37.5123 41.6767 37.4675C41.6773 37.4552 41.678 37.4429 41.6787 37.4306C41.6808 37.3936 41.6836 37.3565 41.6871 37.3194C41.6879 37.3107 41.6885 37.302 41.6895 37.2933C41.6941 37.2489 41.6999 37.2044 41.7065 37.1598C41.7081 37.1487 41.7101 37.1376 41.7119 37.1266C41.7177 37.0908 41.7241 37.0549 41.7313 37.0189C41.7336 37.007 41.7358 36.9951 41.7384 36.9832C41.7477 36.9385 41.758 36.8935 41.7696 36.8483C41.7716 36.8404 41.774 36.8324 41.7761 36.8245C41.7862 36.7862 41.7971 36.7476 41.8088 36.7089C41.8128 36.6954 41.8169 36.6819 41.8212 36.6685C41.8342 36.627 41.848 36.5854 41.8628 36.5435C41.8647 36.5383 41.8663 36.5332 41.8682 36.5279C41.8847 36.4818 41.9027 36.4352 41.9215 36.3884C41.9271 36.3744 41.9329 36.3604 41.9387 36.3463C41.954 36.3092 41.97 36.2721 41.9868 36.2345C41.9921 36.2224 41.9974 36.2103 42.0029 36.198C42.0244 36.1508 42.0472 36.1031 42.071 36.055C42.0775 36.0419 42.0843 36.0287 42.091 36.0155C42.1101 35.9777 42.1299 35.9396 42.1504 35.9013C42.1585 35.886 42.1667 35.8708 42.1749 35.8555C42.1793 35.8475 42.1841 35.8393 42.1884 35.8314C42.8017 36.5719 43.8422 36.9347 44.7233 37.1123L44.2412 37.4526C44.0442 37.5916 43.9553 37.8354 44.0175 38.0654Z" fill="white"/>
</svg>
