<svg width="42" height="52" viewBox="0 0 42 52" fill="none" xmlns="http://www.w3.org/2000/svg">
<path fill-rule="evenodd" clip-rule="evenodd" d="M21 51.4201C21 51.4201 41.46 37.7324 41.46 20.1339C41.46 14.9479 39.3044 9.97433 35.4674 6.30727C31.6305 2.64021 26.4264 0.580078 21 0.580078C15.5737 0.580078 10.3696 2.64021 6.53263 6.30727C2.69564 9.97433 0.540039 14.9479 0.540039 20.1339C0.540039 37.7324 21 51.4201 21 51.4201ZM28.75 20.8335C28.75 25.1137 25.2802 28.5835 21 28.5835C16.7198 28.5835 13.25 25.1137 13.25 20.8335C13.25 16.5533 16.7198 13.0835 21 13.0835C25.2802 13.0835 28.75 16.5533 28.75 20.8335Z" fill="#0092FF"/>
</svg>
