<svg width="60" height="60" viewBox="0 0 60 60" fill="none" xmlns="http://www.w3.org/2000/svg">
<rect width="60" height="60" rx="5" fill="#0092FF"/>
<path d="M18.1337 32.5238C18.2367 32.6268 18.3716 32.6782 18.5065 32.6782C18.6414 32.6782 18.7764 32.6268 18.8794 32.5238L26.8612 24.5421L31.6934 29.3745C31.7923 29.4734 31.9266 29.529 32.0662 29.529C32.2061 29.529 32.3402 29.4734 32.4393 29.3745L36.6053 25.272C36.8113 25.0662 36.8113 24.7323 36.6053 24.5263C36.3993 24.3203 36.0656 24.3203 35.8595 24.5263L32.0662 28.2558L27.234 23.4234C27.1349 23.3245 27.0009 23.2689 26.8612 23.2689C26.7213 23.2689 26.5872 23.3245 26.4881 23.4234L18.5065 31.4052L17.273 30.1717L26.8612 20.5838L31.6936 25.4161C31.7925 25.515 31.9266 25.5706 32.0665 25.5706C32.2063 25.5706 32.3404 25.515 32.4393 25.4161L38.8078 19.0475C39.0138 18.8417 39.0138 18.5078 38.8078 18.3018L38.6135 18.1073L41.7267 17.2732L40.8926 20.3864L40.7869 20.2809C40.6881 20.1821 40.554 20.1264 40.4141 20.1264C40.2742 20.1264 40.1401 20.1821 40.0413 20.2809L37.4795 22.8427C37.2735 23.0487 37.2735 23.3826 37.4795 23.5886C37.6855 23.7944 38.0192 23.7944 38.2254 23.5886L40.4143 21.3997L40.7927 21.7781C40.926 21.9112 41.12 21.9635 41.3021 21.9147C41.484 21.8659 41.6262 21.7237 41.675 21.5418L42.982 16.6639C43.0308 16.4818 42.9787 16.2878 42.8454 16.1545C42.7124 16.0212 42.5181 15.9693 42.3362 16.0179L37.4583 17.3249C37.2764 17.3738 37.1343 17.5159 37.0855 17.698C37.0366 17.8799 37.0887 18.0741 37.2218 18.2072L37.6892 18.6746L32.0665 24.2974L27.234 19.465C27.0283 19.2592 26.6943 19.259 26.4883 19.465L16.1545 29.7989C15.9485 30.0049 15.9485 30.3388 16.1545 30.5448L18.1337 32.5238Z" fill="white"/>
<path d="M42.4726 41.9453H41.9452V26.0021C41.9452 25.7108 41.7092 25.4747 41.4179 25.4747H38.4648C38.1735 25.4747 37.9375 25.7108 37.9375 26.0021V41.9453H36.7246V32.2949C36.7246 32.0039 36.4885 31.7676 36.1972 31.7676H33.2441C32.9528 31.7676 32.7167 32.0039 32.7167 32.2949V41.9453H31.5039V35.0899C31.5039 34.7988 31.2678 34.5625 30.9765 34.5625H28.0234C27.7321 34.5625 27.496 34.7988 27.496 35.0899V41.9453H26.2832V32.2949C26.2832 32.0039 26.0471 31.7676 25.7558 31.7676H22.8027C22.5114 31.7676 22.2754 32.0039 22.2754 32.2949V41.9453H21.0625V37.1113C21.0625 36.8202 20.8264 36.5839 20.5352 36.5839H17.582C17.2908 36.5839 17.0547 36.8202 17.0547 37.1113V41.9453H16.5273C16.2361 41.9453 16 42.1816 16 42.4727C16 42.7639 16.2361 43 16.5273 43H42.4726C42.7638 43 42.9999 42.7639 42.9999 42.4727C42.9999 42.1816 42.7638 41.9453 42.4726 41.9453ZM18.1094 41.9453V37.6386H20.0078V41.9453H18.1094ZM23.3301 41.9453V32.8223H25.2285V41.9453H23.3301ZM28.5508 41.9453V35.6172H30.4492V41.9453H28.5508ZM33.7714 41.9453V32.8223H35.6699V41.9453H33.7714ZM38.9921 41.9453V26.5294H40.8906V41.9453H38.9921Z" fill="white"/>
</svg>
