<svg width="60" height="60" viewBox="0 0 60 60" fill="none" xmlns="http://www.w3.org/2000/svg">
<rect width="60" height="60" rx="5" fill="#0092FF"/>
<path fill-rule="evenodd" clip-rule="evenodd" d="M44.3909 29.4981L38.1372 35.5482C36.3965 37.2323 34.1025 38.2311 31.6522 38.3773L31.2379 38.7796C32.0521 39.221 32.9846 39.4209 33.928 39.3461L34.1324 39.3299C34.321 39.3149 34.507 39.381 34.6409 39.5105L38.1768 42.9317C38.4286 43.1753 38.4286 43.5702 38.1768 43.8137C38.0509 43.9355 37.886 43.9964 37.721 43.9964C37.556 43.9964 37.391 43.9355 37.2652 43.8137L33.9395 40.5963C32.6489 40.6789 31.3795 40.3603 30.3002 39.6905L26.051 43.8165C25.9252 43.9388 25.7597 44 25.5944 44C25.4298 44 25.2652 43.9393 25.1394 43.8181C24.8872 43.575 24.8865 43.1801 25.1377 42.9361L30.9148 37.3264C31.03 37.2144 31.1849 37.149 31.3481 37.1433C33.5674 37.0653 35.6544 36.1858 37.2248 34.6666L43.4785 28.6165C43.923 28.1864 43.923 27.4867 43.4785 27.0567C43.0342 26.6269 42.3114 26.6268 41.8669 27.0562L41.0741 27.8231C40.9483 27.9449 40.7833 28.0058 40.6184 28.0058C40.4534 28.0058 40.2884 27.9448 40.1625 27.8231C39.9108 27.5795 39.9108 27.1846 40.1625 26.9411L41.8208 25.3368C42.0362 25.1285 42.1547 24.8516 42.1547 24.557C42.1547 24.2623 42.0362 23.9855 41.8208 23.7772C41.6055 23.5688 41.3193 23.4541 41.0147 23.4541C40.7102 23.4541 40.424 23.5688 40.2087 23.7772L38.5504 25.3814C38.4246 25.5032 38.2596 25.5641 38.0946 25.5641C37.9297 25.5641 37.7647 25.5031 37.6388 25.3814C37.3871 25.1378 37.3871 24.7429 37.6388 24.4993L39.9281 22.2847C40.3725 21.8546 40.3725 21.155 39.9281 20.7249C39.4835 20.2949 38.7603 20.295 38.3159 20.725L36.0267 22.9397C35.9008 23.0615 35.7358 23.1224 35.5709 23.1224C35.4059 23.1224 35.2409 23.0614 35.115 22.9397C34.8633 22.6961 34.8633 22.3012 35.115 22.0576L38.0352 19.2325C38.2506 19.0243 38.3691 18.7473 38.3691 18.4527C38.3691 18.1581 38.2506 17.8812 38.0352 17.6729C37.8199 17.4645 37.5337 17.3498 37.2291 17.3498C36.9246 17.3498 36.6384 17.4645 36.4231 17.6729L32.1438 21.8129C32.9262 22.7352 32.8727 24.1034 31.9827 24.9644C31.5092 25.4225 30.887 25.6516 30.265 25.6516C30.2326 25.6516 30.2003 25.6506 30.168 25.6494C30.1693 25.6809 30.1704 25.7125 30.1704 25.7442C30.1704 26.3719 29.9177 26.9621 29.4589 27.406C28.9854 27.8642 28.3632 28.0932 27.7412 28.0932C27.7088 28.0932 27.6766 28.0922 27.6443 28.091C27.6455 28.1226 27.6466 28.1541 27.6466 28.1858C27.6466 28.8136 27.3939 29.4037 26.9351 29.8476C26.4616 30.3057 25.8394 30.5348 25.2174 30.5348C25.1847 30.5348 25.1521 30.5339 25.1194 30.5326C25.1456 31.1656 24.9098 31.8071 24.4114 32.2893C23.9525 32.7332 23.3425 32.9777 22.6936 32.9777C22.2656 32.9777 21.8549 32.8708 21.493 32.671L15.1004 38.8555C14.9746 38.9773 14.8096 39.0382 14.6446 39.0382C14.4797 39.0382 14.3147 38.9772 14.1888 38.8555C13.9371 38.6119 13.9371 38.2169 14.1888 37.9734L20.5203 31.8482L19.2342 30.604C18.287 29.6876 18.287 28.1966 19.2342 27.2803C19.5615 26.9637 19.9659 26.7492 20.4061 26.6519C19.9903 25.7828 20.1523 24.7165 20.892 24.0009C21.2516 23.653 21.7041 23.4282 22.1953 23.347C22.1155 23.1125 22.0735 22.8647 22.0735 22.6105C22.0735 21.9828 22.3262 21.3926 22.785 20.9487C23.1534 20.5923 23.6118 20.3752 24.09 20.2961C23.8125 19.4799 24.008 18.5447 24.6778 17.8967C25.1366 17.4528 25.7467 17.2084 26.3956 17.2084C26.7208 17.2084 27.0363 17.2699 27.3279 17.3871C27.2185 17.0874 27.1612 16.7688 27.1612 16.4415V15.6237C27.1612 15.2793 27.4499 15 27.8059 15H32.868C34.0545 15 35.1987 15.4819 36.0071 16.3224L36.0693 16.387C36.4213 16.2013 36.8175 16.1024 37.2295 16.1024C37.8784 16.1024 38.4884 16.3469 38.9473 16.7908C39.406 17.2346 39.6588 17.8248 39.6588 18.4526C39.6588 18.7072 39.6166 18.9554 39.5365 19.1904C40.0143 19.2697 40.4721 19.4867 40.8402 19.8428C41.5097 20.4904 41.7053 21.4249 41.4285 22.2409C41.9202 22.3219 42.3733 22.5467 42.7331 22.8949C43.1919 23.3387 43.4446 23.9289 43.4446 24.5567C43.4446 24.9047 43.3666 25.241 43.2193 25.5474C43.6489 25.6426 44.0569 25.8513 44.3908 26.1744C45.338 27.0908 45.338 28.5818 44.3909 29.4981ZM22.6937 31.7304C22.9981 31.7304 23.2844 31.6157 23.4998 31.4073C23.9442 30.9773 23.9442 30.2776 23.4998 29.8476L21.7579 28.1625C21.5426 27.9541 21.2563 27.8394 20.9519 27.8394C20.6474 27.8394 20.3611 27.9541 20.1458 28.1625C19.7013 28.5925 19.7013 29.2922 20.1458 29.7222L21.8876 31.4073C22.1029 31.6157 22.3892 31.7304 22.6937 31.7304ZM24.4114 28.9656C24.8558 29.3956 25.5791 29.3956 26.0237 28.9656C26.2389 28.7572 26.3575 28.4803 26.3575 28.1857C26.3575 27.8911 26.2389 27.6142 26.0235 27.4058L23.4155 24.8828C23.2002 24.6744 22.914 24.5597 22.6095 24.5597C22.305 24.5597 22.0187 24.6744 21.8034 24.8828C21.3589 25.3128 21.3589 26.0125 21.8034 26.4425L24.4114 28.9656ZM26.9352 26.5239C27.3796 26.9539 28.1029 26.9538 28.5474 26.5239C28.7628 26.3157 28.8813 26.0387 28.8812 25.744C28.8812 25.4494 28.7626 25.1726 28.5473 24.9642L25.3079 21.8303C25.0857 21.6156 24.7941 21.5083 24.5024 21.5083C24.2105 21.5083 23.9185 21.6158 23.6963 21.8308C23.4809 22.039 23.3624 22.316 23.3624 22.6106C23.3624 22.9052 23.4809 23.1821 23.6963 23.3904L26.9352 26.5239ZM29.4591 24.0822C29.9036 24.5122 30.6268 24.5122 31.0713 24.0822C31.2867 23.8739 31.4051 23.5969 31.4051 23.3022C31.4051 23.0077 31.2865 22.7307 31.0711 22.5224L27.2013 18.7786C26.9792 18.5635 26.6872 18.456 26.3953 18.456C26.1034 18.456 25.8114 18.5635 25.5892 18.7786C25.1447 19.2086 25.1447 19.9083 25.5892 20.3383L26.2191 20.9477L26.2202 20.9487L29.4591 24.0822ZM29.4701 19.2096L31.2408 20.9226L35.0895 17.1993L35.0632 17.1721C34.4978 16.5843 33.6977 16.2473 32.8678 16.2473H28.4504V16.4415C28.4504 16.8661 28.6216 17.2648 28.9327 17.5643C29.2418 17.862 29.6518 18.0256 30.0877 18.0256H30.0956L31.8647 18.0176H31.8678C32.2224 18.0176 32.5108 18.2949 32.5124 18.6383C32.5141 18.9828 32.2268 19.2633 31.8708 19.2649L30.1017 19.273H30.0875C29.8773 19.2731 29.6709 19.251 29.4701 19.2096Z" fill="white"/>
<path d="M43.6564 32.689L46.8093 35.7269C47.0621 35.9694 47.0638 36.3643 46.8129 36.6088C46.6869 36.7318 46.5211 36.7934 46.3553 36.7934C46.1912 36.7934 46.027 36.7331 45.9013 36.6125L42.7484 33.5746C42.4957 33.332 42.4939 32.9371 42.7447 32.6926C42.9954 32.448 43.4035 32.4463 43.6564 32.689Z" fill="white"/>
</svg>
