<svg width="60" height="60" viewBox="0 0 60 60" fill="none" xmlns="http://www.w3.org/2000/svg">
<path d="M45.1878 3.88501L55.6203 14.76V56.115H16.6484V56.25H55.7534V14.8969L45.1878 3.88501Z" fill="#909090"/>
<path d="M45.4665 4H17V56H56V14.9351L45.4665 4Z" fill="#F4F4F4"/>
<path d="M16.2283 6.5625H4.24707V19.3631H41.9346V6.5625H16.2283Z" fill="#7A7B7C"/>
<path d="M42.1346 19.1456H4.49023V6.33557H42.1346V19.1456Z" fill="#DD2025"/>
<path d="M16.9721 8.50129H14.5215V17.5013H16.449V14.4657L16.8746 14.49C17.2882 14.4829 17.6979 14.4088 18.0877 14.2707C18.4296 14.1531 18.744 13.9675 19.0121 13.725C19.2849 13.4941 19.5 13.2026 19.6402 12.8738C19.8283 12.3272 19.8955 11.7464 19.8371 11.1713C19.8254 10.7605 19.7534 10.3536 19.6234 9.96379C19.505 9.68237 19.3293 9.42867 19.1076 9.21884C18.8858 9.00901 18.6228 8.84766 18.3352 8.74504C18.0866 8.65504 17.8298 8.58972 17.5684 8.55004C17.3704 8.5195 17.1705 8.50321 16.9702 8.50129M16.6159 12.8025H16.449V10.0275H16.8109C16.9706 10.016 17.1308 10.0405 17.2798 10.0993C17.4288 10.158 17.5626 10.2495 17.6715 10.3669C17.8971 10.6688 18.0176 11.0363 18.0146 11.4132C18.0146 11.8744 18.0146 12.2925 17.5984 12.5869C17.2985 12.7518 16.9572 12.828 16.6159 12.8025ZM23.499 8.47692C23.2909 8.47692 23.0884 8.49192 22.9459 8.49754L22.4996 8.50879H21.0371V17.5088H22.7584C23.4162 17.5268 24.0711 17.4153 24.6859 17.1807C25.1807 16.9844 25.6189 16.668 25.9609 16.26C26.2934 15.8484 26.5321 15.3691 26.6602 14.8557C26.8075 14.2742 26.8794 13.6761 26.874 13.0763C26.9104 12.3678 26.8555 11.6576 26.7109 10.9632C26.5736 10.452 26.3165 9.98084 25.9609 9.58879C25.6818 9.27222 25.3403 9.01686 24.9577 8.83879C24.6292 8.68676 24.2836 8.57471 23.9284 8.50504C23.7871 8.4817 23.644 8.47104 23.5009 8.47317M23.1596 15.855H22.9721V10.11H22.9965C23.383 10.0656 23.7741 10.1353 24.1215 10.3107C24.3759 10.5138 24.5831 10.7697 24.729 11.0607C24.8864 11.3669 24.9771 11.7031 24.9952 12.0469C25.0121 12.4594 24.9952 12.7969 24.9952 13.0763C25.0029 13.3981 24.9822 13.72 24.9334 14.0382C24.8756 14.3648 24.7687 14.6809 24.6165 14.9757C24.4442 15.2497 24.2113 15.4806 23.9359 15.6507C23.7045 15.8003 23.4306 15.8701 23.1559 15.8494M32.6809 8.50879H28.1246V17.5088H30.0521V13.9388H32.4896V12.2663H30.0521V10.1813H32.6771V8.50879" fill="#464648"/>
<path d="M40.8393 37.9781C40.8393 37.9781 46.8168 36.8943 46.8168 38.9362C46.8168 40.9781 43.1137 40.1475 40.8393 37.9781ZM36.4199 38.1337C35.4702 38.3436 34.5447 38.6508 33.658 39.0506L34.408 37.3631C35.158 35.6756 35.9362 33.375 35.9362 33.375C36.8311 34.8812 37.8724 36.2956 39.0449 37.5975C38.1607 37.7293 37.2844 37.9096 36.4199 38.1375V38.1337ZM34.0537 25.9462C34.0537 24.1668 34.6293 23.6812 35.0774 23.6812C35.5255 23.6812 36.0299 23.8968 36.0468 25.4418C35.9008 26.9954 35.5755 28.5268 35.0774 30.0056C34.3951 28.764 34.042 27.3685 34.0518 25.9518L34.0537 25.9462ZM25.3368 45.6637C23.503 44.5668 29.1824 41.19 30.2118 41.0812C30.2062 41.0831 27.2568 46.8112 25.3368 45.6637ZM48.5624 39.1781C48.5437 38.9906 48.3749 36.915 44.6812 37.0031C43.1415 36.9783 41.6027 37.0868 40.0818 37.3275C38.6085 35.8432 37.3398 34.1691 36.3093 32.3493C36.9585 30.4733 37.3515 28.5181 37.4774 26.5368C37.423 24.2868 36.8849 22.9968 35.1599 23.0156C33.4349 23.0343 33.1837 24.5437 33.4105 26.79C33.6328 28.2994 34.052 29.7732 34.6574 31.1737C34.6574 31.1737 33.8605 33.6543 32.8068 36.1218C31.753 38.5893 31.033 39.8831 31.033 39.8831C29.2006 40.4796 27.4757 41.3658 25.9237 42.5081C24.3787 43.9462 23.7505 45.0506 24.5643 46.155C25.2655 47.1075 27.7199 47.3231 29.9137 44.4487C31.0793 42.9641 32.1441 41.4031 33.1012 39.7762C33.1012 39.7762 36.4462 38.8593 37.4868 38.6081C38.5274 38.3568 39.7855 38.1581 39.7855 38.1581C39.7855 38.1581 42.8399 41.2312 45.7855 41.1225C48.7312 41.0137 48.5887 39.3618 48.5699 39.1818" fill="#DD2025"/>
<path d="M44.9141 3.89441V14.9063H55.4759L44.9141 3.89441Z" fill="#909090"/>
<path d="M45.0586 3.75V14.7619H55.6205L45.0586 3.75Z" fill="#F4F4F4"/>
<path d="M16.8286 8.35688H14.3779V17.3569H16.3129V14.3231L16.7404 14.3475C17.154 14.3404 17.5637 14.2663 17.9536 14.1281C18.2954 14.0105 18.6098 13.8249 18.8779 13.5825C19.1487 13.3509 19.3618 13.0595 19.5004 12.7313C19.6885 12.1847 19.7557 11.6038 19.6973 11.0288C19.6856 10.618 19.6136 10.2111 19.4836 9.82126C19.3652 9.53983 19.1895 9.28613 18.9678 9.07631C18.746 8.86648 18.483 8.70512 18.1954 8.60251C17.9457 8.51163 17.6875 8.44568 17.4248 8.40563C17.2269 8.37509 17.027 8.3588 16.8267 8.35688M16.4723 12.6581H16.3054V9.88313H16.6692C16.8289 9.87161 16.9892 9.89613 17.1381 9.95487C17.2871 10.0136 17.4209 10.1051 17.5298 10.2225C17.7554 10.5244 17.8759 10.8919 17.8729 11.2688C17.8729 11.73 17.8729 12.1481 17.4567 12.4425C17.1568 12.6074 16.8155 12.6817 16.4742 12.6563M23.3554 8.33251C23.1473 8.33251 22.9448 8.34751 22.8023 8.35313L22.3617 8.36438H20.8992V17.3644H22.6204C23.2782 17.3824 23.9331 17.2709 24.5479 17.0363C25.0428 16.84 25.4809 16.5236 25.8229 16.1156C26.1555 15.704 26.3942 15.2247 26.5223 14.7113C26.6696 14.1298 26.7414 13.5317 26.7361 12.9319C26.7724 12.2234 26.7176 11.5132 26.5729 10.8188C26.4356 10.3076 26.1785 9.83643 25.8229 9.44438C25.5439 9.12781 25.2024 8.87245 24.8198 8.69438C24.4913 8.54235 24.1457 8.4303 23.7904 8.36063C23.6492 8.3373 23.5061 8.32663 23.3629 8.32876M23.0217 15.7106H22.8342V9.96563H22.8586C23.2451 9.92116 23.6362 9.9909 23.9836 10.1663C24.2379 10.3694 24.4452 10.6253 24.5911 10.9163C24.7485 11.2225 24.8392 11.5586 24.8573 11.9025C24.8742 12.315 24.8573 12.6525 24.8573 12.9319C24.8649 13.2537 24.8442 13.5756 24.7954 13.8938C24.7376 14.2204 24.6308 14.5365 24.4786 14.8313C24.3062 15.1053 24.0734 15.3362 23.7979 15.5063C23.5666 15.6559 23.2927 15.7257 23.0179 15.705M32.5373 8.36438H27.9811V17.3644H29.9086V13.7944H32.3461V12.1219H29.9086V10.0369H32.5336V8.36438" fill="white"/>
</svg>
