<svg width="17" height="18" viewBox="0 0 17 18" fill="none" xmlns="http://www.w3.org/2000/svg">
<g clip-path="url(#clip0_1370_4279)">
<path d="M10.7446 10.4786C10.8214 10.4275 10.9097 10.3964 11.0015 10.3881C11.0934 10.3797 11.1858 10.3944 11.2706 10.4308L14.5385 11.895C14.6486 11.9421 14.7406 12.0235 14.8005 12.1272C14.8605 12.2309 14.8853 12.3512 14.8711 12.4702C14.7635 13.2747 14.3673 14.0128 13.7562 14.5471C13.1452 15.0814 12.3608 15.3756 11.5491 15.375C9.04969 15.375 6.65263 14.3821 4.88526 12.6147C3.1179 10.8474 2.125 8.45031 2.125 5.95087C2.12438 5.13916 2.41859 4.35484 2.95291 3.74378C3.48723 3.13273 4.2253 2.73653 5.02985 2.62887C5.14878 2.61474 5.26909 2.63951 5.37277 2.69947C5.47645 2.75943 5.55793 2.85136 5.605 2.96149L7.0692 6.23221C7.10518 6.31622 7.11983 6.40782 7.11185 6.49885C7.10387 6.58989 7.07351 6.67754 7.02347 6.754L5.54263 8.51479C5.4901 8.59405 5.45904 8.68559 5.45248 8.78045C5.44592 8.87531 5.46409 8.97025 5.50521 9.05599C6.07828 10.2292 7.29095 11.4273 8.46757 11.9948C8.55376 12.0357 8.64914 12.0535 8.74429 12.0463C8.83944 12.0391 8.93107 12.0073 9.01015 11.9539L10.7446 10.4786Z" stroke="white" stroke-opacity="0.7" stroke-linecap="round" stroke-linejoin="round"/>
</g>
<defs>
<clipPath id="clip0_1370_4279">
<rect width="17" height="17" fill="white" transform="translate(0 0.5)"/>
</clipPath>
</defs>
</svg>
