<svg width="60" height="60" viewBox="0 0 60 60" fill="none" xmlns="http://www.w3.org/2000/svg">
<path d="M54.5424 9.44191H34.8759V4H31.3988L3 8.84946V51.1628L31.0617 56H34.8759V49.9535H53.2792C54.3277 49.9051 55.493 50.008 56.3882 49.367C57.0996 48.2847 56.9271 46.9302 56.9885 45.7088V11.8122C57.1295 10.4215 55.9528 9.3089 54.5424 9.44191ZM20.9861 32.0075C19.5941 32.7088 17.9997 32.6121 16.485 32.5637L16.4789 39.6562L12.8301 39.3539L12.8362 19.975C16.1662 20.1321 20.2012 18.6749 22.9608 21.1358C25.6039 24.2982 24.9047 30.1149 20.9861 32.0075ZM54.0582 47.0998H34.8759V43.3022H49.5936V40.8838H34.8759V37.8606H49.5936V35.4419H34.882C34.882 35.4419 34.8759 33.0717 34.8698 31.8866C37.2982 32.6303 40.0639 32.6122 42.2347 31.1731C44.5835 29.8005 45.8099 27.1824 46.0123 24.5704H37.9421V16.6736L34.8759 17.2844V12.2956H54.0582V47.0998ZM39.1681 15.4098C43.4301 15.6032 47.018 19.1557 47.2449 23.346H39.1681V15.4098ZM16.4789 23.246C17.6869 23.1916 19.1832 22.974 19.9988 24.0925C20.698 25.2777 20.6612 26.8377 20.0786 28.0591C19.3795 29.3046 17.7973 29.1838 16.577 29.3288C16.4483 27.3033 16.4605 25.2777 16.4789 23.246Z" fill="#D54B27"/>
</svg>
