<svg width="60" height="60" viewBox="0 0 60 60" fill="none" xmlns="http://www.w3.org/2000/svg">
<rect y="0.000244141" width="60" height="60" rx="5" fill="#0092FF"/>
<path d="M41.8806 21.3142H34.9396V20.4718H35.532C35.7909 20.4718 36.0008 20.2704 36.0008 20.0219V18.969C36.0008 17.332 34.6133 16.0002 32.9079 16.0002H27.0922C25.3868 16.0002 23.9993 17.332 23.9993 18.969V20.0219C23.9993 20.2704 24.2091 20.4718 24.4681 20.4718H25.0605V21.3142H19.2212C18.9623 21.3142 18.7525 21.5155 18.7525 21.7641C18.7525 22.0126 18.9623 22.214 19.2212 22.214H25.5256C25.5268 22.214 25.528 22.2142 25.5292 22.2142C25.5304 22.2142 25.5316 22.214 25.5328 22.214H28.5389V29.1226C28.0085 29.5332 27.6683 30.1615 27.6683 30.865C27.6683 30.9279 27.6721 30.9904 27.6777 31.0525C23.142 30.877 18.8116 30.1766 15.4254 29.0659C15.1336 28.97 14.9375 28.7081 14.9375 28.4141V25.2682C14.9375 23.8238 16.0056 22.5655 17.4772 22.2763C17.7308 22.2264 17.8943 21.9887 17.8424 21.7452C17.7904 21.5017 17.5426 21.3449 17.2891 21.3946C15.3833 21.7693 14 23.3983 14 25.2682V28.4141C14 29.0583 14.4066 29.6346 15.0218 29.8801V38.277C15.0218 40.33 16.7619 42.0002 18.9008 42.0002H29.0076H30.9924H38.6406C38.8996 42.0002 39.1094 41.7988 39.1094 41.5503C39.1094 41.3018 38.8996 41.1004 38.6406 41.1004H31.4611V35.6188C31.4611 35.3702 31.2513 35.1688 30.9924 35.1688C30.7335 35.1688 30.5236 35.3702 30.5236 35.6188V41.1004H29.4764V35.6188C29.4764 35.3702 29.2665 35.1688 29.0076 35.1688C28.7487 35.1688 28.5389 35.3702 28.5389 35.6188V41.1004H18.9008C17.2788 41.1004 15.9593 39.8338 15.9593 38.277V30.1785C19.4048 31.2038 23.531 31.8179 27.9729 31.9636C28.1564 32.2741 28.4155 32.543 28.7328 32.7412V33.502C28.7328 34.1727 29.3013 34.7182 30 34.7182C30.6987 34.7182 31.2672 34.1726 31.2672 33.502V32.7412C31.5846 32.543 31.8436 32.2741 32.0271 31.9636C36.4689 31.8179 40.5951 31.2038 44.0407 30.1784V38.277C44.0407 39.8338 42.7212 41.1004 41.0992 41.1004H40.5154C40.2564 41.1004 40.0466 41.3018 40.0466 41.5503C40.0466 41.7988 40.2564 42.0002 40.5154 42.0002H41.0992C43.2381 42.0002 44.9782 40.33 44.9782 38.277V29.8801C45.5935 29.6346 46 29.0584 46 28.4141V25.2682C46 23.0879 44.1521 21.3142 41.8806 21.3142ZM24.9368 18.969C24.9368 17.8282 25.9037 16.9001 27.0921 16.9001H32.9078C34.0963 16.9001 35.0632 17.8282 35.0632 18.969V19.5719H33.8784V18.969C33.8784 18.4553 33.443 18.0373 32.9078 18.0373H27.0921C26.5569 18.0373 26.1215 18.4553 26.1215 18.969V19.5719H24.9368V18.969ZM25.9979 20.4718H26.5903C26.8492 20.4718 27.0591 20.2704 27.0591 20.0219V18.969C27.0591 18.9518 27.0743 18.9372 27.0922 18.9372H32.9079C32.9258 18.9372 32.941 18.9518 32.941 18.969V20.0219C32.941 20.2704 33.1508 20.4718 33.4097 20.4718H34.0021V21.3142H31.3477C31.1795 21.0029 30.8411 20.7893 30.4512 20.7893H29.5489C29.159 20.7893 28.8207 21.0029 28.6524 21.3142H25.998L25.9979 20.4718ZM30.597 32.0724C30.4337 32.147 30.3297 32.3051 30.3297 32.4786V33.502C30.3297 33.6764 30.1819 33.8184 30.0001 33.8184C29.8183 33.8184 29.6704 33.6764 29.6704 33.502V32.4786C29.6704 32.305 29.5664 32.147 29.4031 32.0724C28.9189 31.8511 28.6059 31.3772 28.6059 30.865C28.6059 30.1271 29.2314 29.5267 30.0001 29.5267C30.7689 29.5267 31.3943 30.1271 31.3943 30.865C31.3942 31.3772 31.0812 31.8511 30.597 32.0724ZM45.0625 28.4141C45.0625 28.7081 44.8664 28.97 44.5746 29.0658C41.1883 30.1766 36.8579 30.877 32.3223 31.0525C32.3278 30.9903 32.3316 30.9279 32.3316 30.865C32.3316 30.1615 31.9915 29.5332 31.4611 29.1226V25.9604C31.4611 25.7118 31.2512 25.5104 30.9923 25.5104C30.7334 25.5104 30.5236 25.7118 30.5236 25.9604V28.6846C30.3551 28.6473 30.18 28.627 29.9999 28.627C29.8199 28.627 29.6448 28.6473 29.4763 28.6846V21.7588C29.4763 21.7204 29.5089 21.6892 29.5488 21.6892H30.4511C30.4911 21.6892 30.5236 21.7205 30.5236 21.7588V24.1158C30.5236 24.3643 30.7334 24.5657 30.9923 24.5657C31.2512 24.5657 31.4611 24.3643 31.4611 24.1158V22.214H34.4671C34.4684 22.214 34.4696 22.2142 34.4708 22.2142C34.4719 22.2142 34.4731 22.214 34.4744 22.214H41.8806C43.6351 22.214 45.0625 23.5841 45.0625 25.2682V28.4141Z" fill="white"/>
</svg>
