<svg width="60" height="60" viewBox="0 0 60 60" fill="none" xmlns="http://www.w3.org/2000/svg">
<rect width="60" height="60" rx="5" fill="#0092FF"/>
<mask id="mask0_235_41" style="mask-type:luminance" maskUnits="userSpaceOnUse" x="11" y="15" width="36" height="29">
<path d="M47 15H11V44H47V15Z" fill="white"/>
</mask>
<g mask="url(#mask0_235_41)">
<path d="M20.6008 26.0379C20.6321 26.0437 20.6633 26.0464 20.6941 26.0464C20.9446 26.0464 21.167 25.864 21.2126 25.6045C21.6765 22.9634 23.0486 20.5491 25.076 18.8063C27.1271 17.0432 29.7383 16.0722 32.4287 16.0722C35.2985 16.0722 38.0403 17.1603 40.149 19.1361C40.363 19.3368 40.6968 19.3229 40.8941 19.1052C41.0915 18.8875 41.0779 18.5484 40.8638 18.3477C38.5598 16.1889 35.5641 15 32.4287 15C29.4894 15 26.6363 16.061 24.395 17.9875C22.1803 19.8913 20.6813 22.5294 20.1743 25.4159C20.1231 25.7075 20.314 25.9859 20.6008 26.0379Z" fill="white"/>
<path d="M38.7741 34.7551C38.9075 34.7551 39.041 34.7039 39.1437 34.6014C40.9915 32.7551 42.0091 30.288 42.0091 27.6545C42.0091 22.2836 37.7106 17.9141 32.427 17.9141C30.26 17.9141 28.1364 18.6701 26.4473 20.0431C24.7843 21.3948 23.5978 23.2922 23.1063 25.3858C23.0387 25.6738 23.2136 25.963 23.4969 26.0317C23.7804 26.1005 24.0647 25.9227 24.1322 25.6346C24.5694 23.7721 25.6255 22.0837 27.106 20.8803C28.6306 19.6411 30.4706 18.9861 32.427 18.9861C37.129 18.9861 40.9544 22.8747 40.9544 27.6544C40.9544 29.9981 40.0488 32.1936 38.4044 33.8367C38.1966 34.0442 38.1938 34.3837 38.398 34.5948C38.5012 34.7016 38.6376 34.7551 38.7741 34.7551Z" fill="white"/>
<path d="M36.8062 35.0951C35.488 35.8983 33.9743 36.3228 32.4285 36.3228C30.0781 36.3228 27.8889 35.3714 26.264 33.6439C26.0628 33.4299 25.729 33.4223 25.5184 33.6269C25.3079 33.8315 25.3004 34.1708 25.5017 34.3848C27.3274 36.3259 29.7874 37.395 32.4285 37.395C34.1652 37.395 35.8665 36.9177 37.3484 36.0146C37.5982 35.8624 37.6794 35.5331 37.5296 35.2792C37.3799 35.0253 37.056 34.9427 36.8062 35.0951Z" fill="white"/>
<path d="M32.428 21.1877C31.1133 21.1877 29.8515 21.592 28.7788 22.3569C27.7306 23.1042 26.9364 24.1394 26.482 25.3508C26.3782 25.6274 26.5147 25.9372 26.7868 26.0427C27.059 26.1483 27.3637 26.0094 27.4674 25.7329C28.2467 23.6556 30.2402 22.2599 32.4279 22.2599C35.3541 22.2599 37.7348 24.6799 37.7348 27.6544C37.7348 30.629 35.3542 33.0491 32.4279 33.0491C31.3365 33.0491 30.2883 32.7151 29.3966 32.0831C28.5245 31.465 27.8611 30.6081 27.4783 29.6049C27.3729 29.329 27.0674 29.192 26.7959 29.2991C26.5244 29.4062 26.3897 29.7167 26.495 29.9928C26.954 31.1952 27.7487 32.2221 28.7934 32.9625C29.8629 33.7205 31.1196 34.1212 32.4279 34.1212C35.9357 34.1212 38.7895 31.2202 38.7895 27.6544C38.7895 24.0886 35.9358 21.1877 32.428 21.1877Z" fill="white"/>
<path d="M19.46 32.2535C19.2024 32.1153 18.8833 32.2158 18.7476 32.4777C18.038 33.8457 17.0663 35.7193 18.377 37.5817C18.4773 37.7243 18.638 37.806 18.8059 37.806C18.8445 37.806 18.8835 37.8016 18.9222 37.7927C19.1292 37.7451 19.288 37.5761 19.325 37.3637C19.4315 36.7552 19.9437 36.0422 20.8864 35.1932C21.5316 36.1556 22.4083 36.9706 23.6021 37.7251C23.8157 37.8601 24.0933 37.8229 24.2653 37.6364C24.4372 37.4499 24.4558 37.1658 24.3094 36.9579C23.3717 35.6254 24.0766 34.276 24.8928 32.7135C25.6198 31.3217 26.4284 29.7723 25.8508 28.1905H29.4875C29.7373 29.6103 30.9602 30.6917 32.4278 30.6917C34.0753 30.6917 35.4156 29.3292 35.4156 27.6545C35.4156 25.9797 34.0753 24.6172 32.4278 24.6172C30.9603 24.6172 29.7374 25.6985 29.4875 27.1183H19.0063L16.6054 25.3009C16.5145 25.232 16.404 25.1948 16.2905 25.1948H11.5274C11.3124 25.1948 11.1189 25.3275 11.0384 25.53C10.9579 25.7326 11.0064 25.9646 11.161 26.1164C11.5757 26.5236 11.8042 27.0698 11.8042 27.6546C11.8042 28.2394 11.5757 28.7856 11.1611 29.1927C11.0064 29.3445 10.9579 29.5765 11.0384 29.7791C11.119 29.9818 11.3123 30.1144 11.5274 30.1144H16.2904C16.4039 30.1144 16.5144 30.0772 16.6054 30.0083L19.0066 28.1906H19.6116C20.0101 28.8856 20.0172 29.628 19.6433 30.6183C19.539 30.8946 19.6747 31.2047 19.9466 31.3108C20.2184 31.4168 20.5235 31.2788 20.6279 31.0025C20.8992 30.2839 21.1699 29.2752 20.7754 28.1907H24.687C25.4029 29.4508 24.7317 30.7359 23.9612 32.2109C23.3778 33.3276 22.7414 34.5459 22.8112 35.801C22.2502 35.2888 21.8125 34.7372 21.4719 34.1198C21.3957 33.9817 21.2634 33.8849 21.1103 33.8553C20.9573 33.826 20.7992 33.8666 20.6785 33.9667C19.816 34.6822 19.2056 35.3166 18.812 35.9177C18.6871 35.0123 19.1184 34.0614 19.6805 32.9777C19.8164 32.7158 19.7176 32.3916 19.46 32.2535ZM32.4278 25.6895C33.4937 25.6895 34.3609 26.571 34.3609 27.6546C34.3609 28.7382 33.4937 29.6197 32.4278 29.6197C31.5446 29.6197 30.7984 29.0144 30.5683 28.1906H32.4279C32.7191 28.1906 32.9552 27.9506 32.9552 27.6545C32.9552 27.3585 32.7191 27.1185 32.4279 27.1185H30.5684C30.7986 26.2947 31.5447 25.6895 32.4278 25.6895ZM16.1156 29.0422H12.5506C12.7525 28.6151 12.8589 28.1439 12.8589 27.6545C12.8589 27.1652 12.7525 26.694 12.5506 26.2669H16.1156L17.9488 27.6545L16.1156 29.0422Z" fill="white"/>
<path d="M46.4731 42.9275H42.7324L39.8175 37.8373C42.9938 35.4532 44.8763 31.6841 44.8763 27.6543C44.8763 24.8806 44.0099 22.2472 42.3709 20.0389C42.1955 19.8026 41.8648 19.7556 41.6323 19.9338C41.3998 20.1121 41.3535 20.4483 41.529 20.6846C43.0289 22.7054 43.8216 25.1155 43.8216 27.6543C43.8216 31.4958 41.9531 35.0796 38.8232 37.2412C38.0757 37.7581 37.2681 38.1821 36.422 38.5042C36.3953 38.5143 36.3689 38.5254 36.342 38.5353C36.342 38.5353 36.3421 38.5353 36.342 38.5353C35.0918 39.0007 33.7748 39.2368 32.4281 39.2368C31.0833 39.2368 29.7664 39.0008 28.5142 38.5354C27.6409 38.2107 26.8058 37.7749 26.0302 37.239C25.8735 37.1317 25.7097 37.0121 25.5298 36.8735C25.2977 36.6945 24.967 36.7408 24.791 36.9767C24.615 37.2126 24.6605 37.5489 24.8925 37.7277C24.9418 37.7657 24.9899 37.8024 25.0372 37.8379L22.1231 42.9275H18.3828C18.0916 42.9275 17.8555 43.1675 17.8555 43.4636C17.8555 43.7596 18.0916 43.9996 18.3828 43.9996H22.4209C22.4227 43.9996 22.4243 44 22.426 44H26.2447C26.2464 44 26.2479 43.9996 26.2495 43.9996H38.6058C38.6074 43.9996 38.609 44 38.6106 44H42.4293C42.4311 44 42.4327 43.9996 42.4344 43.9996H46.4731C46.7643 43.9996 47.0004 43.7596 47.0004 43.4636C47.0004 43.1675 46.7643 42.9275 46.4731 42.9275ZM38.9425 42.9275L37.2439 39.3269C37.2882 39.308 37.3323 39.2883 37.3764 39.2688C37.3946 39.2608 37.4129 39.253 37.431 39.2449C37.5326 39.1995 37.6336 39.1525 37.734 39.1044C37.7551 39.0943 37.7761 39.0841 37.7971 39.0738C37.8969 39.0252 37.9963 38.9756 38.0949 38.9243C38.0983 38.9225 38.1018 38.9208 38.1052 38.919C38.2061 38.8664 38.306 38.8119 38.4055 38.7564C38.4267 38.7446 38.4479 38.7328 38.4691 38.7208C38.5664 38.6658 38.663 38.6097 38.7588 38.5521C38.7733 38.5433 38.7877 38.5344 38.8022 38.5256C38.8489 38.4971 38.8958 38.4689 38.9422 38.4398L41.5121 42.9275H38.9425ZM36.2504 39.7006L37.7727 42.9275H27.0828L28.6057 39.7004C29.8372 40.1041 31.1206 40.309 32.4281 40.309C33.7371 40.309 35.0205 40.1041 36.2504 39.7006ZM25.9141 38.4377C26.4579 38.7779 27.0261 39.0749 27.6129 39.3255L25.9131 42.9275H23.3434L25.9141 38.4377Z" fill="white"/>
</g>
</svg>
