<svg width="1920" height="207" viewBox="0 0 1920 207" fill="none" xmlns="http://www.w3.org/2000/svg">
<path fill-rule="evenodd" clip-rule="evenodd" d="M980.616 4.64993C991.772 -0.684187 1010.76 -0.378533 1048.69 9.45891C1084.61 19.7696 1105.91 34.6024 1119.72 51.4602C1133.53 68.317 1139.89 87.2434 1145.87 105.897C1146.09 106.59 1146.31 107.283 1146.53 107.975C1152.27 125.901 1157.9 143.52 1169.78 158.491C1182.11 174.046 1201.13 186.694 1233.88 194.028C1299.87 209.644 1347.16 193.488 1392.89 169.628C1399.56 166.209 1406.27 162.667 1413.1 159.057C1454.32 137.292 1500.25 113.031 1571.1 98.0315C1653.7 80.5449 1707.3 88.5908 1761.98 102.963C1761.98 102.963 1761.98 102.963 1761.98 102.964L1762.06 102.374L1761.98 102.963C1761.98 102.963 1761.98 102.963 1761.98 102.963C1775.62 106.623 1789.08 110.721 1802.7 114.863C1843.18 127.178 1884.96 139.89 1936.39 142.672C1936.63 142.685 1936.83 142.427 1936.84 142.096C1936.85 141.764 1936.66 141.485 1936.42 141.472C1885.08 138.694 1843.4 126.014 1802.94 113.705C1789.31 109.558 1775.82 105.454 1762.14 101.784L1762.14 101.784C1707.4 87.3918 1653.69 79.3318 1570.97 96.8441C1500.02 111.865 1454 136.17 1412.79 157.938C1405.95 161.547 1399.25 165.087 1392.59 168.502L1392.59 168.504C1346.94 192.317 1299.81 208.412 1234.02 192.844L1234.02 192.843C1201.37 185.531 1182.53 172.948 1170.36 157.604C1158.63 142.808 1153.06 125.398 1147.31 107.432C1147.1 106.76 1146.88 106.086 1146.66 105.412C1140.68 86.7474 1134.26 67.6052 1120.3 50.561C1106.34 33.5185 1084.88 18.6185 1048.86 8.2816L1048.86 8.27934C1010.94 -1.5544 991.734 -1.93735 980.33 3.51497C970.868 8.03884 966.797 16.5919 961.953 26.7672C960.935 28.9066 959.883 31.1176 958.739 33.378C952.124 46.4492 943.726 61.8051 923.47 73.9498C903.186 86.1103 870.986 95.0659 816.747 95.1839C721.508 95.3911 676.18 80.4523 631.242 65.6418C624.997 63.5835 618.759 61.5276 612.395 59.5153C560.695 43.0107 505.221 29.7761 382.094 37.8841C320.7 41.6568 279.674 58.2369 248.274 79.6161C224.088 96.0839 205.614 115.403 187.976 133.848C182.729 139.336 177.555 144.746 172.327 149.981C149.521 172.818 125.626 192.378 89.8879 200.707C54.1352 209.038 6.49388 206.137 -63.8049 183.941L-63.9996 185.112C6.35728 207.326 54.124 210.259 90.0333 201.891C125.956 193.52 149.977 173.846 172.839 150.953C178.093 145.692 183.284 140.265 188.541 134.767C206.169 116.333 224.556 97.105 248.661 80.6931C279.938 59.3976 320.843 42.8504 382.135 39.0842L382.136 39.0841C505.185 30.9812 560.579 44.2068 612.199 60.6859L612.2 60.6862C618.56 62.6975 624.796 64.7528 631.041 66.8109C675.999 81.6279 721.406 96.5927 816.748 96.3853C871.04 96.2671 903.377 87.306 923.817 75.0514C944.284 62.781 952.795 47.2235 959.454 34.0651C960.628 31.7458 961.699 29.4982 962.728 27.3401C967.562 17.1986 971.456 9.02953 980.616 4.64993Z" fill="url(#paint0_linear_247_292)" fill-opacity="0.5"/>
<path fill-rule="evenodd" clip-rule="evenodd" d="M980.616 4.64993C991.772 -0.684187 1010.76 -0.378533 1048.69 9.45891C1084.61 19.7696 1105.91 34.6024 1119.72 51.4602C1133.53 68.317 1139.89 87.2434 1145.87 105.897C1146.09 106.59 1146.31 107.283 1146.53 107.975C1152.27 125.901 1157.9 143.52 1169.78 158.491C1182.11 174.046 1201.13 186.694 1233.88 194.028C1299.87 209.644 1347.16 193.488 1392.89 169.628C1399.56 166.209 1406.27 162.667 1413.1 159.057C1454.32 137.292 1500.25 113.031 1571.1 98.0315C1653.7 80.5449 1707.3 88.5908 1761.98 102.963C1761.98 102.963 1761.98 102.963 1761.98 102.964L1762.06 102.374L1761.98 102.963C1761.98 102.963 1761.98 102.963 1761.98 102.963C1775.62 106.623 1789.08 110.721 1802.7 114.863C1843.18 127.178 1884.96 139.89 1936.39 142.672C1936.63 142.685 1936.83 142.427 1936.84 142.096C1936.85 141.764 1936.66 141.485 1936.42 141.472C1885.08 138.694 1843.4 126.014 1802.94 113.705C1789.31 109.558 1775.82 105.454 1762.14 101.784L1762.14 101.784C1707.4 87.3918 1653.69 79.3318 1570.97 96.8441C1500.02 111.865 1454 136.17 1412.79 157.938C1405.95 161.547 1399.25 165.087 1392.59 168.502L1392.59 168.504C1346.94 192.317 1299.81 208.412 1234.02 192.844L1234.02 192.843C1201.37 185.531 1182.53 172.948 1170.36 157.604C1158.63 142.808 1153.06 125.398 1147.31 107.432C1147.1 106.76 1146.88 106.086 1146.66 105.412C1140.68 86.7474 1134.26 67.6052 1120.3 50.561C1106.34 33.5185 1084.88 18.6185 1048.86 8.2816L1048.86 8.27934C1010.94 -1.5544 991.734 -1.93735 980.33 3.51497C970.868 8.03884 966.797 16.5919 961.953 26.7672C960.935 28.9066 959.883 31.1176 958.739 33.378C952.124 46.4492 943.726 61.8051 923.47 73.9498C903.186 86.1103 870.986 95.0659 816.747 95.1839C721.508 95.3911 676.18 80.4523 631.242 65.6418C624.997 63.5835 618.759 61.5276 612.395 59.5153C560.695 43.0107 505.221 29.7761 382.094 37.8841C320.7 41.6568 279.674 58.2369 248.274 79.6161C224.088 96.0839 205.614 115.403 187.976 133.848C182.729 139.336 177.555 144.746 172.327 149.981C149.521 172.818 125.626 192.378 89.8879 200.707C54.1352 209.038 6.49388 206.137 -63.8049 183.941L-63.9996 185.112C6.35728 207.326 54.124 210.259 90.0333 201.891C125.956 193.52 149.977 173.846 172.839 150.953C178.093 145.692 183.284 140.265 188.541 134.767C206.169 116.333 224.556 97.105 248.661 80.6931C279.938 59.3976 320.843 42.8504 382.135 39.0842L382.136 39.0841C505.185 30.9812 560.579 44.2068 612.199 60.6859L612.2 60.6862C618.56 62.6975 624.796 64.7528 631.041 66.8109C675.999 81.6279 721.406 96.5927 816.748 96.3853C871.04 96.2671 903.377 87.306 923.817 75.0514C944.284 62.781 952.795 47.2235 959.454 34.0651C960.628 31.7458 961.699 29.4982 962.728 27.3401C967.562 17.1986 971.456 9.02953 980.616 4.64993Z" fill="#040404" fill-opacity="0.2"/>
<defs>
<linearGradient id="paint0_linear_247_292" x1="-63.9997" y1="103.098" x2="1977.66" y2="-16.1978" gradientUnits="userSpaceOnUse">
<stop stop-color="#006DBF"/>
<stop offset="0.596597" stop-color="#0092FF" stop-opacity="0.3"/>
<stop offset="1" stop-color="#0092FF"/>
</linearGradient>
</defs>
</svg>
