<svg width="1920" height="190" viewBox="0 0 1920 190" fill="none" xmlns="http://www.w3.org/2000/svg">
<path fill-rule="evenodd" clip-rule="evenodd" d="M871.084 145.795C987.355 142.004 1091.35 115.971 1170.14 58.8563C1183.05 45.9409 1204.07 37.293 1229.08 31.7987C1254.12 26.2971 1283.21 23.945 1312.3 23.6785C1370.47 23.1458 1428.68 30.9526 1454.44 38.64C1494.04 48.5684 1521.88 48.5662 1549.85 46.1528C1557.45 45.4967 1565.07 44.6619 1572.94 43.7996C1594 41.4899 1616.87 38.9838 1646.07 39.1919C1666.14 39.3349 1679.83 42.0995 1690.32 46.3995C1700.81 50.7015 1708.08 56.5322 1715.31 62.7565C1716.11 63.4443 1716.91 64.1366 1717.71 64.8322C1724.17 70.4305 1730.86 76.237 1740.07 81.5096C1750.42 87.4353 1763.95 92.6921 1783.87 96.173C1817.96 101.093 1854.49 95.605 1888.98 87.0081C1911.06 81.5029 1932.27 74.7319 1951.45 68.6073C1962.24 65.1633 1972.39 61.9237 1981.69 59.2284C1981.93 59.1601 1982.16 59.368 1982.21 59.6926C1982.26 60.0173 1982.11 60.3358 1981.87 60.4041C1972.61 63.0893 1962.47 66.3238 1951.69 69.7653C1932.49 75.8951 1911.23 82.6814 1889.13 88.1903C1854.61 96.7956 1817.98 102.306 1783.77 97.3671L1783.77 97.3657L1783.77 97.3656C1763.78 93.874 1750.17 88.594 1739.73 82.6189C1730.45 77.3056 1723.7 71.4467 1717.25 65.8486C1716.44 65.153 1715.65 64.4614 1714.85 63.7754C1707.64 57.57 1700.45 51.8068 1690.07 47.551C1679.68 43.2931 1666.08 40.5359 1646.07 40.3932C1616.9 40.1854 1594.09 42.6857 1573.03 44.9943C1565.16 45.8574 1557.53 46.6938 1549.91 47.3518C1521.88 49.7698 1493.96 49.7717 1454.28 39.8201L1454.27 39.8183L1454.26 39.8162C1428.59 32.1533 1370.45 24.3474 1312.31 24.8798C1283.24 25.1461 1254.2 27.4964 1229.21 32.9851C1204.22 38.4773 1183.36 47.0996 1170.62 59.8535L1170.6 59.879L1170.57 59.8992C1091.6 117.155 987.437 143.207 871.078 146.997L871.05 146.998L871.023 146.994C833.034 141.61 809.008 141.689 793.855 144.796C778.688 147.905 772.523 154.021 770.065 160.553C768.83 163.833 768.504 167.282 768.486 170.645C768.478 172.328 768.546 173.98 768.615 175.578L768.622 175.73C768.688 177.267 768.753 178.76 768.741 180.151C768.716 183.011 768.371 185.612 766.932 187.42C765.504 189.214 763.105 190.093 759.234 189.928C751.357 189.591 745.375 182.736 738.957 172.812C736.794 169.468 734.582 165.777 732.227 161.847C727.554 154.05 722.317 145.312 715.787 136.482C696.208 110.009 665.131 82.9414 603.786 80.1094C542.367 77.2741 516.445 84.3285 495.925 92.9475C492.152 94.5322 488.559 96.1715 484.959 97.8139C468.944 105.12 452.799 112.485 420.194 115.354C365.937 120.95 319.152 104.491 270.597 87.4091C258.212 83.0519 245.712 78.6543 232.942 74.5718C191.297 69.4898 169.237 50.9647 148.969 33.9446C143.272 29.1602 137.717 24.4948 131.907 20.2803C118.675 10.6804 104.092 3.38054 83.4502 2.25398C62.7956 1.12674 36.0536 6.17929 -1.49257 21.3383L-1.73781 20.1854C35.8581 5.00627 62.7009 -0.0807343 83.4846 1.05356C104.281 2.18853 118.99 9.5513 132.314 19.2173C138.176 23.4706 143.764 28.1621 149.481 32.9619C169.734 49.966 191.605 68.3289 233.05 73.3788L233.08 73.3825L233.11 73.392C245.929 77.4898 258.465 81.8994 270.875 86.2647C319.413 103.339 366.03 119.736 420.132 114.155L420.136 114.155C452.626 111.296 468.673 103.976 484.675 96.6773C488.28 95.0329 491.883 93.3895 495.671 91.7984C516.307 83.1304 542.33 76.0703 603.815 78.9088C665.373 81.7506 696.659 108.936 716.398 135.625C722.957 144.493 728.255 153.333 732.947 161.159C735.292 165.071 737.485 168.73 739.608 172.012C746.012 181.916 751.778 188.407 759.261 188.727C763.07 188.89 765.176 188 766.344 186.532C767.502 185.078 767.845 182.923 767.869 180.137C767.88 178.792 767.818 177.339 767.751 175.789L767.745 175.649C767.676 174.054 767.605 172.365 767.614 170.637C767.632 167.177 767.968 163.515 769.291 160C771.947 152.942 778.477 146.734 793.726 143.608C808.985 140.479 833.089 140.412 871.084 145.795Z" fill="url(#paint0_linear_241_1231)" fill-opacity="0.5"/>
<path fill-rule="evenodd" clip-rule="evenodd" d="M871.084 145.795C987.355 142.004 1091.35 115.971 1170.14 58.8563C1183.05 45.9409 1204.07 37.293 1229.08 31.7987C1254.12 26.2971 1283.21 23.945 1312.3 23.6785C1370.47 23.1458 1428.68 30.9526 1454.44 38.64C1494.04 48.5684 1521.88 48.5662 1549.85 46.1528C1557.45 45.4967 1565.07 44.6619 1572.94 43.7996C1594 41.4899 1616.87 38.9838 1646.07 39.1919C1666.14 39.3349 1679.83 42.0995 1690.32 46.3995C1700.81 50.7015 1708.08 56.5322 1715.31 62.7565C1716.11 63.4443 1716.91 64.1366 1717.71 64.8322C1724.17 70.4305 1730.86 76.237 1740.07 81.5096C1750.42 87.4353 1763.95 92.6921 1783.87 96.173C1817.96 101.093 1854.49 95.605 1888.98 87.0081C1911.06 81.5029 1932.27 74.7319 1951.45 68.6073C1962.24 65.1633 1972.39 61.9237 1981.69 59.2284C1981.93 59.1601 1982.16 59.368 1982.21 59.6926C1982.26 60.0173 1982.11 60.3358 1981.87 60.4041C1972.61 63.0893 1962.47 66.3238 1951.69 69.7653C1932.49 75.8951 1911.23 82.6814 1889.13 88.1903C1854.61 96.7956 1817.98 102.306 1783.77 97.3671L1783.77 97.3657L1783.77 97.3656C1763.78 93.874 1750.17 88.594 1739.73 82.6189C1730.45 77.3056 1723.7 71.4467 1717.25 65.8486C1716.44 65.153 1715.65 64.4614 1714.85 63.7754C1707.64 57.57 1700.45 51.8068 1690.07 47.551C1679.68 43.2931 1666.08 40.5359 1646.07 40.3932C1616.9 40.1854 1594.09 42.6857 1573.03 44.9943C1565.16 45.8574 1557.53 46.6938 1549.91 47.3518C1521.88 49.7698 1493.96 49.7717 1454.28 39.8201L1454.27 39.8183L1454.26 39.8162C1428.59 32.1533 1370.45 24.3474 1312.31 24.8798C1283.24 25.1461 1254.2 27.4964 1229.21 32.9851C1204.22 38.4773 1183.36 47.0996 1170.62 59.8535L1170.6 59.879L1170.57 59.8992C1091.6 117.155 987.437 143.207 871.078 146.997L871.05 146.998L871.023 146.994C833.034 141.61 809.008 141.689 793.855 144.796C778.688 147.905 772.523 154.021 770.065 160.553C768.83 163.833 768.504 167.282 768.486 170.645C768.478 172.328 768.546 173.98 768.615 175.578L768.622 175.73C768.688 177.267 768.753 178.76 768.741 180.151C768.716 183.011 768.371 185.612 766.932 187.42C765.504 189.214 763.105 190.093 759.234 189.928C751.357 189.591 745.375 182.736 738.957 172.812C736.794 169.468 734.582 165.777 732.227 161.847C727.554 154.05 722.317 145.312 715.787 136.482C696.208 110.009 665.131 82.9414 603.786 80.1094C542.367 77.2741 516.445 84.3285 495.925 92.9475C492.152 94.5322 488.559 96.1715 484.959 97.8139C468.944 105.12 452.799 112.485 420.194 115.354C365.937 120.95 319.152 104.491 270.597 87.4091C258.212 83.0519 245.712 78.6543 232.942 74.5718C191.297 69.4898 169.237 50.9647 148.969 33.9446C143.272 29.1602 137.717 24.4948 131.907 20.2803C118.675 10.6804 104.092 3.38054 83.4502 2.25398C62.7956 1.12674 36.0536 6.17929 -1.49257 21.3383L-1.73781 20.1854C35.8581 5.00627 62.7009 -0.0807343 83.4846 1.05356C104.281 2.18853 118.99 9.5513 132.314 19.2173C138.176 23.4706 143.764 28.1621 149.481 32.9619C169.734 49.966 191.605 68.3289 233.05 73.3788L233.08 73.3825L233.11 73.392C245.929 77.4898 258.465 81.8994 270.875 86.2647C319.413 103.339 366.03 119.736 420.132 114.155L420.136 114.155C452.626 111.296 468.673 103.976 484.675 96.6773C488.28 95.0329 491.883 93.3895 495.671 91.7984C516.307 83.1304 542.33 76.0703 603.815 78.9088C665.373 81.7506 696.659 108.936 716.398 135.625C722.957 144.493 728.255 153.333 732.947 161.159C735.292 165.071 737.485 168.73 739.608 172.012C746.012 181.916 751.778 188.407 759.261 188.727C763.07 188.89 765.176 188 766.344 186.532C767.502 185.078 767.845 182.923 767.869 180.137C767.88 178.792 767.818 177.339 767.751 175.789L767.745 175.649C767.676 174.054 767.605 172.365 767.614 170.637C767.632 167.177 767.968 163.515 769.291 160C771.947 152.942 778.477 146.734 793.726 143.608C808.985 140.479 833.089 140.412 871.084 145.795Z" fill="#040404" fill-opacity="0.2"/>
<defs>
<linearGradient id="paint0_linear_241_1231" x1="-1.73786" y1="95.4243" x2="2021.53" y2="223.283" gradientUnits="userSpaceOnUse">
<stop stop-color="#006DBF"/>
<stop offset="0.596597" stop-color="#0092FF" stop-opacity="0.3"/>
<stop offset="1" stop-color="#0092FF"/>
</linearGradient>
</defs>
</svg>
