<svg width="60" height="60" viewBox="0 0 60 60" fill="none" xmlns="http://www.w3.org/2000/svg">
<path d="M35.2992 4.0019V8.83889C41.7347 8.875 48.7758 8.77237 55.2132 8.875C55.4403 8.83536 55.6734 8.84943 55.8941 8.9161C56.1148 8.98276 56.3169 9.10019 56.4845 9.25905C56.6521 9.41791 56.7805 9.61382 56.8594 9.83122C56.9384 10.0486 56.9658 10.2815 56.9394 10.5114C57.0416 22.4205 56.9148 35.0099 57 46.9209C56.9621 47.6811 57.017 49.0458 56.8997 49.8041C56.7502 50.7715 56.3205 50.9577 55.3533 51.0889C54.8119 51.163 53.9072 51.1535 53.3753 51.1782C48.0906 51.1516 42.8098 51.1573 37.5251 51.1592H35.3011V56L4 51.1554V8.84839L35.2992 4.0019Z" fill="#283C82"/>
<path d="M34.755 10.9163H54.4425V49.0875H34.755V44.3156H50.2612V41.9306H34.755V38.9494H50.2612V36.5625H34.755V33.5813H50.2612V31.1944H34.755V28.2131H50.2612V25.8263H34.755V22.845H50.2612V20.4581H34.755V17.4769H50.2612V15.09H34.755V10.9163ZM16.0744 21.4556C17.1994 21.39 18.3412 21.3431 19.4737 21.2831C20.2669 25.3088 21.0787 29.3288 21.9375 33.3375C22.6106 29.1975 23.3569 25.0706 24.0788 20.9381C25.2703 20.8954 26.4611 20.8329 27.6506 20.7506C26.3025 26.5294 25.1213 32.3569 23.6494 38.1019C22.6538 38.6213 21.1631 38.0775 19.9819 38.1619C19.1887 34.2131 18.2644 30.2869 17.5538 26.3231C16.8563 30.1875 15.9488 33.9994 15.15 37.8281C14.005 37.7681 12.8556 37.6988 11.7019 37.62C10.7119 32.37 9.54937 27.1594 8.625 21.8981C9.645 21.8513 10.6706 21.8081 11.6906 21.7725C12.3056 25.5713 13.0031 29.3531 13.5394 33.1575C14.3794 29.2575 15.24 25.3556 16.0744 21.4556Z" fill="white"/>
</svg>
